<svg width="78" height="78" viewBox="0 0 78 78" fill="none" xmlns="http://www.w3.org/2000/svg">
<g clip-path="url(#clip0_331_21400)">
<circle cx="1.2832" cy="1.15625" r="1" fill="#272727"/>
<circle cx="12.2832" cy="1.15625" r="1" fill="#272727"/>
<circle cx="23.2832" cy="1.15625" r="1" fill="#272727"/>
<circle cx="34.2832" cy="1.15625" r="1" fill="#272727"/>
<circle cx="45.2832" cy="1.15625" r="1" fill="#272727"/>
<circle cx="56.2832" cy="1.15625" r="1" fill="#272727"/>
<circle cx="67.2832" cy="1.15625" r="1" fill="#272727"/>
<circle cx="1.2832" cy="12.1562" r="1" fill="#272727"/>
<circle cx="12.2832" cy="12.1562" r="1" fill="#272727"/>
<circle cx="23.2832" cy="12.1562" r="1" fill="#272727"/>
<circle cx="34.2832" cy="12.1562" r="1" fill="#272727"/>
<circle cx="45.2832" cy="12.1562" r="1" fill="#272727"/>
<circle cx="56.2832" cy="12.1562" r="1" fill="#272727"/>
<circle cx="67.2832" cy="12.1562" r="1" fill="#272727"/>
<circle cx="1.2832" cy="23.1562" r="1" fill="#272727"/>
<circle cx="12.2832" cy="23.1562" r="1" fill="#272727"/>
<circle cx="23.2832" cy="23.1562" r="1" fill="#272727"/>
<circle cx="34.2832" cy="23.1562" r="1" fill="#272727"/>
<circle cx="45.2832" cy="23.1562" r="1" fill="#272727"/>
<circle cx="56.2832" cy="23.1562" r="1" fill="#272727"/>
<circle cx="67.2832" cy="23.1562" r="1" fill="#272727"/>
<circle cx="1.2832" cy="34.1562" r="1" fill="#272727"/>
<circle cx="12.2832" cy="34.1562" r="1" fill="#272727"/>
<circle cx="23.2832" cy="34.1562" r="1" fill="#272727"/>
<circle cx="34.2832" cy="34.1562" r="1" fill="#272727"/>
<circle cx="45.2832" cy="34.1562" r="1" fill="#272727"/>
<circle cx="56.2832" cy="34.1562" r="1" fill="#272727"/>
<circle cx="67.2832" cy="34.1562" r="1" fill="#272727"/>
<circle cx="1.2832" cy="45.1562" r="1" fill="#272727"/>
<circle cx="12.2832" cy="45.1562" r="1" fill="#272727"/>
<circle cx="23.2832" cy="45.1562" r="1" fill="#272727"/>
<circle cx="34.2832" cy="45.1562" r="1" fill="#272727"/>
<circle cx="45.2832" cy="45.1562" r="1" fill="#272727"/>
<circle cx="56.2832" cy="45.1562" r="1" fill="#272727"/>
<circle cx="67.2832" cy="45.1562" r="1" fill="#272727"/>
<circle cx="1.2832" cy="56.1562" r="1" fill="#272727"/>
<circle cx="12.2832" cy="56.1562" r="1" fill="#272727"/>
<circle cx="23.2832" cy="56.1562" r="1" fill="#272727"/>
<circle cx="34.2832" cy="56.1562" r="1" fill="#272727"/>
<circle cx="45.2832" cy="56.1562" r="1" fill="#272727"/>
<circle cx="56.2832" cy="56.1562" r="1" fill="#272727"/>
<circle cx="67.2832" cy="56.1562" r="1" fill="#272727"/>
<circle cx="1.2832" cy="67.1562" r="1" fill="#272727"/>
<circle cx="12.2832" cy="67.1562" r="1" fill="#272727"/>
<circle cx="23.2832" cy="67.1562" r="1" fill="#272727"/>
<circle cx="34.2832" cy="67.1562" r="1" fill="#272727"/>
<circle cx="45.2832" cy="67.1562" r="1" fill="#272727"/>
<circle cx="56.2832" cy="67.1562" r="1" fill="#272727"/>
<circle cx="67.2832" cy="67.1562" r="1" fill="#272727"/>
</g>
<defs>
<clipPath id="clip0_331_21400">
<rect width="77" height="77" fill="white" transform="translate(0.283203 0.15625)"/>
</clipPath>
</defs>
</svg>
